<svg width="24" height="24" viewBox="0 0 24 24" fill="none" xmlns="http://www.w3.org/2000/svg">
<mask id="mask0_190_1173" style="mask-type:alpha" maskUnits="userSpaceOnUse" x="0" y="0" width="24" height="24">
<rect width="24" height="24" fill="#D9D9D9"/>
</mask>
<g mask="url(#mask0_190_1173)">
<path d="M5.27114 18.7L12.3211 16.2L7.77114 11.65L5.27114 18.7ZM22.3421 7.275C22.2241 7.39933 22.086 7.4615 21.9276 7.4615C21.7693 7.4615 21.6312 7.40258 21.5134 7.28475L21.4479 7.21925C21.1761 6.94742 20.846 6.8115 20.4576 6.8115C20.0691 6.8115 19.739 6.94742 19.4671 7.21925L14.4016 12.2848C14.2838 12.4026 14.1457 12.4631 13.9874 12.4663C13.8291 12.4696 13.6877 12.4091 13.5634 12.2848C13.4391 12.1603 13.3769 12.0205 13.3769 11.8655C13.3769 11.7103 13.4391 11.5706 13.5634 11.4462L18.6286 6.38075C19.13 5.87958 19.7364 5.629 20.4479 5.629C21.1594 5.629 21.7658 5.87958 22.2671 6.38075L22.3421 6.45575C22.4601 6.57375 22.5191 6.71033 22.5191 6.8655C22.5191 7.0205 22.4601 7.157 22.3421 7.275ZM9.87864 4.4C10.003 4.27567 10.1427 4.2135 10.2979 4.2135C10.4531 4.2135 10.5928 4.27567 10.7171 4.4L10.9286 4.6115C11.462 5.14483 11.7286 5.78458 11.7286 6.53075C11.7286 7.27692 11.462 7.91667 10.9286 8.45L10.7479 8.63075C10.6301 8.74875 10.492 8.80933 10.3336 8.8125C10.1753 8.81567 10.0339 8.75508 9.90939 8.63075C9.78506 8.50642 9.72289 8.36667 9.72289 8.2115C9.72289 8.0565 9.78506 7.91675 9.90939 7.79225L10.0904 7.6115C10.3877 7.31417 10.5364 6.95392 10.5364 6.53075C10.5364 6.10775 10.3877 5.7475 10.0904 5.45L9.87864 5.2385C9.76081 5.1205 9.70022 4.98233 9.69689 4.824C9.69372 4.66567 9.75431 4.52433 9.87864 4.4ZM13.7364 2.66925C13.8607 2.54492 14.0005 2.48275 14.1556 2.48275C14.3108 2.48275 14.4506 2.54492 14.5749 2.66925L15.6401 3.73475C16.148 4.24242 16.4019 4.852 16.4019 5.5635C16.4019 6.275 16.148 6.88458 15.6401 7.39225L12.5749 10.4577C12.4569 10.5757 12.3187 10.6363 12.1604 10.6395C12.0021 10.6427 11.8607 10.5821 11.7364 10.4577C11.6121 10.3334 11.5499 10.1937 11.5499 10.0385C11.5499 9.88333 11.6121 9.74358 11.7364 9.61925L14.8019 6.554C15.0736 6.28217 15.2094 5.952 15.2094 5.5635C15.2094 5.175 15.0736 4.84483 14.8019 4.573L13.7364 3.50775C13.6184 3.38975 13.5578 3.25158 13.5546 3.09325C13.5515 2.93492 13.6121 2.79358 13.7364 2.66925ZM20.8516 14.1115C20.7273 14.2358 20.5876 14.298 20.4324 14.298C20.2774 14.298 20.1377 14.2358 20.0134 14.1115L19.2364 13.3348C18.9326 13.0308 18.5607 12.8787 18.1209 12.8787C17.6812 12.8787 17.3095 13.0308 17.0056 13.3348L16.2286 14.1115C16.1106 14.2295 15.9725 14.2901 15.8141 14.2933C15.6558 14.2964 15.5145 14.2358 15.3901 14.1115C15.2658 13.9872 15.2036 13.8474 15.2036 13.6923C15.2036 13.5373 15.2658 13.3975 15.3901 13.273L16.1671 12.4963C16.7068 11.9564 17.3581 11.6865 18.1209 11.6865C18.8837 11.6865 19.5351 11.9564 20.0749 12.4963L20.8516 13.273C20.9696 13.391 21.0302 13.5292 21.0334 13.6875C21.0366 13.8458 20.976 13.9872 20.8516 14.1115ZM3.43064 19.3652L6.70564 10.2598C6.78264 10.0623 6.89897 9.91158 7.05464 9.80775C7.21047 9.70392 7.37881 9.652 7.55964 9.652C7.68014 9.652 7.79231 9.67217 7.89614 9.7125C7.99997 9.753 8.09864 9.82 8.19214 9.9135L14.0576 15.7787C14.1511 15.8724 14.2181 15.9712 14.2584 16.075C14.2989 16.1788 14.3191 16.291 14.3191 16.4115C14.3191 16.5923 14.2672 16.7606 14.1634 16.9162C14.0596 17.0721 13.9089 17.1884 13.7114 17.2653L4.60564 20.5403C4.42497 20.6108 4.25097 20.6217 4.08364 20.573C3.91631 20.5243 3.77239 20.4398 3.65189 20.3193C3.53139 20.1987 3.44681 20.0548 3.39814 19.8875C3.34931 19.7202 3.36014 19.5461 3.43064 19.3652Z" fill="currentColor"/>
</g>
</svg>
