<svg width="24" height="24" viewBox="0 0 24 24" fill="none" xmlns="http://www.w3.org/2000/svg">
<mask id="mask0_190_1170" style="mask-type:alpha" maskUnits="userSpaceOnUse" x="0" y="0" width="24" height="24">
<rect width="24" height="24" fill="#D9D9D9"/>
</mask>
<g mask="url(#mask0_190_1170)">
<path d="M5.25017 18.8845C5.03767 18.8845 4.85959 18.8127 4.71592 18.669C4.57209 18.5252 4.50017 18.3469 4.50017 18.1343C4.50017 17.9218 4.57209 17.7437 4.71592 17.6C4.85959 17.4565 5.03767 17.3848 5.25017 17.3848H6.30792V9.923C6.30792 8.57817 6.72301 7.38908 7.55317 6.35575C8.38317 5.32242 9.44884 4.6615 10.7502 4.373V3.75C10.7502 3.40283 10.8716 3.10767 11.1144 2.8645C11.3573 2.6215 11.6521 2.5 11.9989 2.5C12.3459 2.5 12.6412 2.6215 12.8847 2.8645C13.1283 3.10767 13.2502 3.40283 13.2502 3.75V4.373C14.5515 4.6615 15.6172 5.32242 16.4472 6.35575C17.2773 7.38908 17.6924 8.57817 17.6924 9.923V17.3848H18.7502C18.9627 17.3848 19.1408 17.4566 19.2844 17.6003C19.4283 17.7441 19.5002 17.9223 19.5002 18.135C19.5002 18.3475 19.4283 18.5256 19.2844 18.6693C19.1408 18.8128 18.9627 18.8845 18.7502 18.8845H5.25017ZM11.9984 21.6923C11.5009 21.6923 11.0756 21.5153 10.7224 21.1613C10.3691 20.8073 10.1924 20.3817 10.1924 19.8845H13.8079C13.8079 20.3833 13.6308 20.8093 13.2764 21.1625C12.9221 21.5157 12.4961 21.6923 11.9984 21.6923ZM7.80792 17.3848H16.1924V9.923C16.1924 8.76533 15.7832 7.77725 14.9647 6.95875C14.146 6.14008 13.1578 5.73075 12.0002 5.73075C10.8425 5.73075 9.85434 6.14008 9.03567 6.95875C8.21717 7.77725 7.80792 8.76533 7.80792 9.923V17.3848ZM3.37042 9.9135C3.15442 9.9135 2.97459 9.83242 2.83092 9.67025C2.68742 9.50808 2.62592 9.31733 2.64642 9.098C2.74759 7.94417 3.04626 6.86342 3.54242 5.85575C4.03859 4.84808 4.68026 3.9635 5.46742 3.202C5.63292 3.05717 5.81951 2.985 6.02717 2.9855C6.23484 2.98617 6.40592 3.07275 6.54042 3.24525C6.67509 3.41775 6.73217 3.60525 6.71167 3.80775C6.69117 4.01025 6.59826 4.18908 6.43292 4.34425C5.80859 4.96725 5.30084 5.6855 4.90967 6.499C4.51867 7.3125 4.27259 8.18783 4.17142 9.125C4.14442 9.34417 4.05817 9.53042 3.91267 9.68375C3.76717 9.83692 3.58642 9.9135 3.37042 9.9135ZM20.6347 9.9135C20.4155 9.9135 20.2332 9.83692 20.0877 9.68375C19.9422 9.53042 19.8559 9.34417 19.8289 9.125C19.7278 8.18783 19.4833 7.31408 19.0954 6.50375C18.7076 5.69358 18.2015 4.97692 17.5772 4.35375C17.4095 4.19925 17.3128 4.019 17.2869 3.813C17.2611 3.607 17.3155 3.41775 17.4502 3.24525C17.5848 3.07275 17.7576 2.98783 17.9684 2.9905C18.1793 2.993 18.3674 3.06667 18.5329 3.2115C19.3201 3.97317 19.9618 4.85617 20.4579 5.8605C20.9541 6.865 21.2528 7.94417 21.3539 9.098C21.3744 9.31733 21.3128 9.50808 21.1692 9.67025C21.0253 9.83242 20.8472 9.9135 20.6347 9.9135Z" fill="currentColor"/>
</g>
</svg>
