<svg width="24" height="19" viewBox="0 0 24 19" fill="none" xmlns="http://www.w3.org/2000/svg">
<path d="M10.3894 13.875L11.5984 15.0841C11.7155 15.2011 11.8494 15.2597 12 15.2597C12.1506 15.2597 12.2845 15.2011 12.4016 15.0841L13.6106 13.875H15.81C15.9606 13.875 16.0925 13.8185 16.2056 13.7056C16.3185 13.5925 16.375 13.4606 16.375 13.31V11.1106L17.5841 9.90156C17.7011 9.78448 17.7597 9.65063 17.7597 9.5C17.7597 9.34937 17.7011 9.21552 17.5841 9.09844L16.375 7.88938V5.69C16.375 5.53938 16.3185 5.4075 16.2056 5.29437C16.0925 5.18146 15.9606 5.125 15.81 5.125H13.6106L12.4016 3.91594C12.2845 3.79885 12.1506 3.74031 12 3.74031C11.8494 3.74031 11.7155 3.79885 11.5984 3.91594L10.3894 5.125H8.19C8.03937 5.125 7.9075 5.18146 7.79438 5.29437C7.68146 5.4075 7.625 5.53938 7.625 5.69V7.88938L6.41594 9.09844C6.29885 9.21552 6.24031 9.34937 6.24031 9.5C6.24031 9.65063 6.29885 9.78448 6.41594 9.90156L7.625 11.1106V13.31C7.625 13.4606 7.68146 13.5925 7.79438 13.7056C7.9075 13.8185 8.03937 13.875 8.19 13.875H10.3894ZM12 12.9375V6.0625C12.9535 6.0625 13.7648 6.39708 14.4338 7.06625C15.1029 7.73521 15.4375 8.54646 15.4375 9.5C15.4375 10.4535 15.1029 11.2648 14.4338 11.9338C13.7648 12.6029 12.9535 12.9375 12 12.9375ZM2.38469 18.875C1.75323 18.875 1.21875 18.6562 0.78125 18.2188C0.34375 17.7812 0.125 17.2468 0.125 16.6153V2.38469C0.125 1.75323 0.34375 1.21875 0.78125 0.78125C1.21875 0.34375 1.75323 0.125 2.38469 0.125H21.6153C22.2468 0.125 22.7812 0.34375 23.2188 0.78125C23.6562 1.21875 23.875 1.75323 23.875 2.38469V16.6153C23.875 17.2468 23.6562 17.7812 23.2188 18.2188C22.7812 18.6562 22.2468 18.875 21.6153 18.875H2.38469ZM2.38469 17H21.6153C21.7116 17 21.7997 16.9599 21.8797 16.8797C21.9599 16.7997 22 16.7116 22 16.6153V2.38469C22 2.28844 21.9599 2.20031 21.8797 2.12031C21.7997 2.0401 21.7116 2 21.6153 2H2.38469C2.28844 2 2.20031 2.0401 2.12031 2.12031C2.0401 2.20031 2 2.28844 2 2.38469V16.6153C2 16.7116 2.0401 16.7997 2.12031 16.8797C2.20031 16.9599 2.28844 17 2.38469 17Z" fill="currentColor"/>
</svg>
