<svg width="24" height="24" viewBox="0 0 24 24" fill="none" xmlns="http://www.w3.org/2000/svg">
<mask id="mask0_1545_11081" style="mask-type:alpha" maskUnits="userSpaceOnUse" x="0" y="0" width="24" height="24">
<rect width="24" height="24" fill="#D9D9D9"/>
</mask>
<g mask="url(#mask0_1545_11081)">
<path d="M9.16334 12.6442C8.95067 12.6442 8.7725 12.5723 8.62884 12.4285C8.48534 12.2848 8.41359 12.1067 8.41359 11.8942V5.3635L6.09634 7.68075C5.961 7.81925 5.79192 7.8885 5.58909 7.8885C5.38625 7.8885 5.20725 7.81675 5.05209 7.67325C4.89692 7.51675 4.81934 7.33783 4.81934 7.1365C4.81934 6.93533 4.89692 6.75717 5.05209 6.602L8.52134 3.13275C8.61484 3.03908 8.71392 2.97308 8.81859 2.93475C8.92342 2.89625 9.03567 2.877 9.15534 2.877C9.275 2.877 9.38867 2.89633 9.49634 2.935C9.604 2.97383 9.704 3.03975 9.79634 3.13275L13.2906 6.627C13.4393 6.77567 13.5126 6.94808 13.5106 7.14425C13.5088 7.34042 13.4303 7.51675 13.2751 7.67325C13.1199 7.81675 12.9443 7.89108 12.7481 7.89625C12.5519 7.90125 12.3763 7.82625 12.2213 7.67125L9.91359 5.3635V11.9037C9.91359 12.1136 9.84167 12.2894 9.69784 12.4312C9.554 12.5732 9.37584 12.6442 9.16334 12.6442ZM14.8448 21.1135C14.7252 21.1135 14.6115 21.0941 14.5038 21.0553C14.3962 21.0166 14.2962 20.9507 14.2038 20.8577L10.7096 17.3635C10.5609 17.2147 10.4876 17.0422 10.4896 16.8462C10.4914 16.6501 10.5699 16.4737 10.7251 16.3172C10.8803 16.1737 11.0559 16.0994 11.2521 16.0942C11.4483 16.0891 11.6238 16.1641 11.7788 16.3192L14.0866 18.627V12.0865C14.0866 11.8768 14.1585 11.701 14.3023 11.559C14.4462 11.4172 14.6243 11.3462 14.8368 11.3462C15.0495 11.3462 15.2277 11.4181 15.3713 11.5617C15.5148 11.7056 15.5866 11.8837 15.5866 12.0962V18.627L17.9038 16.3095C18.0392 16.1712 18.2083 16.102 18.4111 16.102C18.6139 16.102 18.7929 16.1737 18.9481 16.3172C19.1033 16.4737 19.1808 16.6526 19.1808 16.8537C19.1808 17.0551 19.1033 17.2333 18.9481 17.3885L15.4788 20.8577C15.3853 20.9512 15.2863 21.0172 15.1816 21.0557C15.0768 21.0942 14.9645 21.1135 14.8448 21.1135Z" fill="currentColor"/>
</g>
</svg>
